<?xml version="1.0" ?><svg height="48px" version="1.1" viewBox="0 0 48 48" width="48px" xmlns="http://www.w3.org/2000/svg" xmlns:xlink="http://www.w3.org/1999/xlink"><title/><desc/><g fill="none" fill-rule="evenodd" id="Page-1" stroke="none" stroke-width="1"><g id="Artboard-Copy" transform="translate(-347.000000, -129.000000)"><path d="M370.2695,136.0005 L371.7285,136.0005 C377.7345,136.0005 381.9865,140.9525 381.9865,146.9795 L381.9865,155.1555 L385.118012,160.493499 C385.208025,160.646937 385.255479,160.821608 385.255479,160.9995 C385.255479,161.551785 384.807764,161.9995 384.255479,161.9995 L357.751858,161.9995 C357.572907,161.9995 357.397234,161.95148 357.243167,161.860449 C356.767678,161.579507 356.609966,160.966298 356.890908,160.490809 L360.0155,155.2025 L360.0155,146.8995 C360.0155,140.8705 364.2655,136.0005 370.2695,136.0005 Z M365.9995,163.0005 L375.9995,163.0005 C375.9995,165.2085 373.7615,167.0005 370.9995,167.0005 C368.2385,167.0005 365.9995,165.2085 365.9995,163.0005 Z" fill="#000000" id="bell"/><g id="slices" transform="translate(47.000000, 9.000000)"/></g></g></svg>